<svg width="97" height="26" viewBox="0 0 97 26" fill="none" xmlns="http://www.w3.org/2000/svg">
<path d="M22.0983 24.9745V14.2301C22.0983 12.3874 20.9795 11.4568 19.4658 11.4568C18.2009 11.4568 16.79 12.3321 15.9119 13.16V24.9798H11.0564V14.2301C11.0564 12.3874 9.93768 11.4568 8.42391 11.4568C7.15895 11.4568 5.74804 12.3321 4.87011 13.16V24.9798H0V7.80294H4.63452L4.92669 9.16529C5.50977 8.62963 7.26169 7.26855 10.0389 7.26855C12.2291 7.26855 14.0771 8.18997 15.0986 10.1379L16.0712 9.16529C16.6557 8.5822 18.3575 7.26855 21.1309 7.26855C24.5846 7.26855 26.9683 9.50616 26.9683 14.2735V24.9745H22.0983Z" fill="#243746"/>
<path d="M29.3867 24.9743V7.80273H34.2568V24.9743H29.3867Z" fill="#243746"/>
<path d="M48.4126 24.9745V14.4671C48.4126 12.4242 47.1963 11.4515 45.4945 11.4515C43.9374 11.4515 42.2355 12.7164 41.5537 13.3482V24.9745H36.6836V7.80294H41.3654L41.6089 9.26268C42.2421 8.67832 44.0414 7.26855 46.9595 7.26855C50.608 7.26855 53.284 9.60355 53.284 14.6131V24.9745H48.4126Z" fill="#243746"/>
<path d="M61.2585 25.5098C57.9495 25.5098 55.0801 23.7065 55.0801 17.9151V1.04102H59.9501V7.80252H64.807L64.7939 11.792H59.9449V17.9691C59.9449 20.4501 61.1124 21.3255 63.009 21.3255C63.8839 21.3105 64.7458 21.1119 65.5388 20.7424V24.5845C64.7122 24.9253 63.1551 25.5098 61.2585 25.5098Z" fill="#243746"/>
<path d="M78.3802 24.9743L78.088 23.8555C77.6931 24.1964 75.9965 25.51 72.8349 25.51C69.6233 25.51 66.7539 23.2724 66.7539 18.1641V7.80273H71.6239V18.3103C71.6239 20.353 72.8401 21.3257 74.542 21.3257C76.0017 21.3257 77.6063 20.1582 77.9958 19.8673V7.80273H82.8659V24.9743H78.3802Z" fill="#243746"/>
<path d="M90.4416 25.5102C87.7183 25.5102 86.0151 24.731 84.9449 24.3414V20.0123C85.7242 20.3532 88.3988 21.5694 90.3416 21.5694C91.7512 21.5694 92.4818 21.0823 92.4818 20.3532C92.4818 19.8175 92.0869 19.3805 90.7299 18.6986C88.2501 17.4351 84.7949 15.9754 84.7949 12.619C84.7949 9.11646 87.7144 7.26855 91.1129 7.26855C93.4479 7.26855 95.7342 8.14381 96.4634 8.48481V12.5191C95.6368 12.1242 93.3992 11.1567 91.3564 11.1567C89.9941 11.1567 89.2635 11.6437 89.2635 12.3243C89.2635 12.9573 89.7993 13.3456 90.918 13.8814C93.7401 15.2436 96.9991 16.556 96.9991 20.1071C97.0096 23.7583 93.7507 25.5102 90.4416 25.5102Z" fill="#243746"/>
<path d="M34.2573 0H26.9863L34.2573 7.2683V0Z" fill="#00C84B"/>
</svg>
